<svg width="16" height="16" viewBox="0 0 16 16" fill="none" xmlns="http://www.w3.org/2000/svg">
<path d="M7.99998 1.33333C7.1245 1.33333 6.25759 1.50577 5.44876 1.8408C4.63992 2.17583 3.90499 2.66689 3.28593 3.28595C2.03569 4.53619 1.33331 6.23189 1.33331 8C1.33331 10.9467 3.24665 13.4467 5.89331 14.3333C6.22665 14.3867 6.33331 14.18 6.33331 14V12.8733C4.48665 13.2733 4.09331 11.98 4.09331 11.98C3.78665 11.2067 3.35331 11 3.35331 11C2.74665 10.5867 3.39998 10.6 3.39998 10.6C4.06665 10.6467 4.41998 11.2867 4.41998 11.2867C4.99998 12.3 5.97998 12 6.35998 11.84C6.41998 11.4067 6.59331 11.1133 6.77998 10.9467C5.29998 10.78 3.74665 10.2067 3.74665 7.66666C3.74665 6.92666 3.99998 6.33333 4.43331 5.86C4.36665 5.69333 4.13331 5 4.49998 4.1C4.49998 4.1 5.05998 3.92 6.33331 4.78C6.85998 4.63333 7.43331 4.56 7.99998 4.56C8.56665 4.56 9.13998 4.63333 9.66665 4.78C10.94 3.92 11.5 4.1 11.5 4.1C11.8666 5 11.6333 5.69333 11.5666 5.86C12 6.33333 12.2533 6.92666 12.2533 7.66666C12.2533 10.2133 10.6933 10.7733 9.20665 10.94C9.44665 11.1467 9.66665 11.5533 9.66665 12.1733V14C9.66665 14.18 9.77331 14.3933 10.1133 14.3333C12.76 13.44 14.6666 10.9467 14.6666 8C14.6666 7.12452 14.4942 6.25761 14.1592 5.44877C13.8241 4.63993 13.3331 3.90501 12.714 3.28595C12.095 2.66689 11.36 2.17583 10.5512 1.8408C9.74237 1.50577 8.87546 1.33333 7.99998 1.33333Z" fill="black"/>
</svg>
